<svg
  version="1.1"
  id="Layer_1"
  xmlns="http://www.w3.org/2000/svg"
  xmlns:xlink="http://www.w3.org/1999/xlink"
  x="0px"
  y="0px"
  width="100%"
  viewBox="0 0 180 180"
  enable-background="new 0 0 180 180"
  xml:space="preserve"
>
  <path
    fill="#26326D"
    opacity="1.000000"
    stroke="none"
    d="M0.999999,111.000000 
	C1.000000,97.979103 1.000000,84.958214 1.384134,71.497681 
	C2.148398,70.563705 2.657013,70.123055 2.889406,69.566971 
	C6.435168,61.082539 9.130032,52.122738 13.619467,44.175449 
	C25.878271,22.474676 45.144630,9.638950 68.833008,2.947832 
	C69.671814,2.710900 70.282822,1.667520 71.000000,1.000000 
	C84.020897,1.000000 97.041786,1.000000 110.502274,1.384206 
	C111.927788,2.232515 112.908836,2.707278 113.900368,3.159065 
	C123.470352,7.519597 133.782623,10.751543 142.460983,16.465433 
	C161.205383,28.806849 172.917694,46.724995 178.950775,68.350548 
	C179.228699,69.346733 180.298828,70.121902 181.000000,71.000000 
	C181.000000,84.020897 181.000000,97.041786 180.615875,110.502319 
	C179.821136,111.599266 179.310669,112.214737 179.015167,112.920258 
	C175.588837,121.100662 172.957886,129.722794 168.647583,137.403763 
	C156.356979,159.305649 137.040482,172.311920 113.166725,179.051727 
	C112.327988,179.288513 111.717094,180.332336 111.000000,181.000000 
	C97.979103,181.000000 84.958214,181.000000 71.492256,180.611115 
	C70.549644,179.847626 70.100365,179.251801 69.547394,179.131134 
	C58.595570,176.741074 48.620060,171.940964 39.490356,165.717300 
	C20.860756,153.017639 9.097260,135.285370 3.048335,113.644073 
	C2.770361,112.649574 1.700851,111.876305 0.999999,111.000000 
M113.437401,57.942142 
	C118.224586,52.507877 123.011772,47.073612 128.188889,41.196720 
	C119.300980,40.059448 112.304298,40.474136 106.410133,48.099041 
	C97.874977,59.140404 87.915504,69.069016 78.908310,79.762642 
	C74.977104,84.429893 70.572289,85.920303 64.383690,84.423561 
	C64.383690,70.038429 64.383690,55.615040 64.383690,41.127640 
	C59.660259,41.127640 55.440346,41.127640 51.230324,41.127640 
	C51.230324,74.716820 51.230324,107.960495 51.230324,141.434631 
	C55.583267,141.434631 59.671963,141.434631 64.446243,141.434631 
	C64.446243,126.040543 64.446243,110.837196 64.446243,95.680038 
	C71.472206,94.463631 76.516289,95.814255 80.925430,101.232346 
	C90.062225,112.459877 100.393585,122.745682 109.138100,134.251419 
	C115.004295,141.969955 121.953262,142.388657 131.111664,141.224213 
	C115.808098,123.095863 100.967865,105.516357 86.417313,88.280006 
	C94.870094,78.806885 103.931847,68.651276 113.437401,57.942142 
z"
  />
  <path
    fill="#000000"
    opacity="1.000000"
    stroke="none"
    d="
M181.000000,70.531342 
	C180.298828,70.121902 179.228699,69.346733 178.950775,68.350548 
	C172.917694,46.724995 161.205383,28.806849 142.460983,16.465433 
	C133.782623,10.751543 123.470352,7.519597 113.900368,3.159065 
	C112.908836,2.707278 111.927788,2.232515 110.970932,1.384206 
	C134.260193,1.000000 157.520370,1.000000 181.000000,1.000000 
	C181.000000,24.020430 181.000000,47.041557 181.000000,70.531342 
z"
  />
  <path
    fill="#000000"
    opacity="1.000000"
    stroke="none"
    d="
M70.531342,1.000000 
	C70.282822,1.667520 69.671814,2.710900 68.833008,2.947832 
	C45.144630,9.638950 25.878271,22.474676 13.619467,44.175449 
	C9.130032,52.122738 6.435168,61.082539 2.889406,69.566971 
	C2.657013,70.123055 2.148398,70.563705 1.384134,71.029022 
	C1.000000,47.739807 1.000000,24.479618 1.000000,1.000000 
	C24.020430,1.000000 47.041557,1.000000 70.531342,1.000000 
z"
  />
  <path
    fill="#000000"
    opacity="1.000000"
    stroke="none"
    d="
M0.999999,111.468658 
	C1.700851,111.876305 2.770361,112.649574 3.048335,113.644073 
	C9.097260,135.285370 20.860756,153.017639 39.490356,165.717300 
	C48.620060,171.940964 58.595570,176.741074 69.547394,179.131134 
	C70.100365,179.251801 70.549644,179.847626 71.023598,180.611115 
	C47.739815,181.000000 24.479630,181.000000 1.000000,181.000000 
	C1.000000,157.979568 1.000000,134.958450 0.999999,111.468658 
z"
  />
  <path
    fill="#000000"
    opacity="1.000000"
    stroke="none"
    d="
M111.468658,181.000000 
	C111.717094,180.332336 112.327988,179.288513 113.166725,179.051727 
	C137.040482,172.311920 156.356979,159.305649 168.647583,137.403763 
	C172.957886,129.722794 175.588837,121.100662 179.015167,112.920258 
	C179.310669,112.214737 179.821136,111.599266 180.615875,110.970978 
	C181.000000,134.260193 181.000000,157.520370 181.000000,181.000000 
	C157.979568,181.000000 134.958450,181.000000 111.468658,181.000000 
z"
  />
  <path
    fill="#FBFCFD"
    opacity="1.000000"
    stroke="none"
    d="
M113.215500,58.218906 
	C103.931847,68.651276 94.870094,78.806885 86.417313,88.280006 
	C100.967865,105.516357 115.808098,123.095863 131.111664,141.224213 
	C121.953262,142.388657 115.004295,141.969955 109.138100,134.251419 
	C100.393585,122.745682 90.062225,112.459877 80.925430,101.232346 
	C76.516289,95.814255 71.472206,94.463631 64.446243,95.680038 
	C64.446243,110.837196 64.446243,126.040543 64.446243,141.434631 
	C59.671963,141.434631 55.583267,141.434631 51.230324,141.434631 
	C51.230324,107.960495 51.230324,74.716820 51.230324,41.127640 
	C55.440346,41.127640 59.660259,41.127640 64.383690,41.127640 
	C64.383690,55.615040 64.383690,70.038429 64.383690,84.423561 
	C70.572289,85.920303 74.977104,84.429893 78.908310,79.762642 
	C87.915504,69.069016 97.874977,59.140404 106.410133,48.099041 
	C112.304298,40.474136 119.300980,40.059448 128.188889,41.196720 
	C123.011772,47.073612 118.224586,52.507877 113.215500,58.218906 
z"
  />
</svg>
